<?xml version="1.0" encoding="UTF-8" standalone="no"?>
<svg
   width="32"
   height="32"
   fill="#000000"
   viewBox="0 0 256 256"
   version="1.1"
   id="svg1"
   sodipodi:docname="diamond_inner.svg"
   inkscape:version="1.4.3 (0d15f75042, 2025-12-25)"
   xmlns:inkscape="http://www.inkscape.org/namespaces/inkscape"
   xmlns:sodipodi="http://sodipodi.sourceforge.net/DTD/sodipodi-0.dtd"
   xmlns="http://www.w3.org/2000/svg"
   xmlns:svg="http://www.w3.org/2000/svg">
  <defs
     id="defs1" />
  <sodipodi:namedview
     id="namedview1"
     pagecolor="#ffffff"
     bordercolor="#000000"
     borderopacity="0.25"
     inkscape:showpageshadow="2"
     inkscape:pageopacity="0.0"
     inkscape:pagecheckerboard="0"
     inkscape:deskcolor="#d1d1d1"
     inkscape:zoom="35.21875"
     inkscape:cx="15.985803"
     inkscape:cy="15.985803"
     inkscape:window-width="2560"
     inkscape:window-height="1440"
     inkscape:window-x="0"
     inkscape:window-y="0"
     inkscape:window-maximized="1"
     inkscape:current-layer="svg1" />
  <path
     d="M235.33,116.72,139.28,20.66a16,16,0,0,0-22.56,0l-96,96.06a16,16,0,0,0,0,22.56l96.05,96.06h0a16,16,0,0,0,22.56,0l96.05-96.06a16,16,0,0,0,0-22.56ZM128,224h0L32,128,128,32,224,128Z"
     id="path1" />
  <path
     d="M 181.64831,122.35962 133.61588,74.3265 c -3.12078,-3.102 -8.16096,-3.102 -11.28174,0 L 74.3267,122.35964 c -3.102266,3.1205 -3.102266,8.16022 0,11.28072 l 48.03244,48.03314 v 0 c 3.12078,3.102 8.16096,3.102 11.28174,0 l 48.03243,-48.03314 c 3.10226,-3.1205 3.10226,-8.16022 0,-11.28072 z"
     id="path1-5"
     style="stroke-width:0.500055"
     sodipodi:nodetypes="ccccccscccc" />
</svg>
